<svg xmlns="http://www.w3.org/2000/svg" viewBox="0 0 64 64" role="img" aria-label="Semiconductor circuit board">
  <defs>
    <linearGradient id="board" x1="8" y1="7" x2="56" y2="57" gradientUnits="userSpaceOnUse">
      <stop offset="0" stop-color="#26a269" />
      <stop offset=".52" stop-color="#0f8f5b" />
      <stop offset="1" stop-color="#06643f" />
    </linearGradient>
    <linearGradient id="chip" x1="21" y1="19" x2="43" y2="45" gradientUnits="userSpaceOnUse">
      <stop offset="0" stop-color="#1f2937" />
      <stop offset="1" stop-color="#050816" />
    </linearGradient>
  </defs>

  <rect width="54" height="54" x="5" y="5" fill="url(#board)" rx="13" />
  <path fill="none" stroke="#f1c85b" stroke-linecap="round" stroke-linejoin="round" stroke-width="3" d="M14 18h9M14 46h9M41 18h9M41 46h9M18 14v9M46 14v9M18 41v9M46 41v9M12 32h11M41 32h11M32 12v11M32 41v11" />
  <path fill="none" stroke="#b9f5d0" stroke-linecap="round" stroke-linejoin="round" stroke-width="2" opacity=".7" d="M14 25h8l4 4M50 25h-8l-4 4M14 39h8l4-4M50 39h-8l-4-4" />
  <rect width="26" height="26" x="19" y="19" fill="url(#chip)" stroke="#f6d878" stroke-width="2.5" rx="7" />
  <rect width="12" height="12" x="26" y="26" fill="#1dd3b0" rx="3" />
  <path fill="none" stroke="#eafff5" stroke-linecap="round" stroke-width="2" d="M29 32h6M32 29v6" opacity=".9" />
  <circle cx="13" cy="13" r="2.5" fill="#d8f8df" opacity=".85" />
  <circle cx="51" cy="13" r="2.5" fill="#d8f8df" opacity=".85" />
  <circle cx="13" cy="51" r="2.5" fill="#d8f8df" opacity=".85" />
  <circle cx="51" cy="51" r="2.5" fill="#d8f8df" opacity=".85" />
</svg>
